<svg xmlns="http://www.w3.org/2000/svg" viewBox="0 0 390.19824 106.26972"><path d="M54.71336,211.92967c6.33692-9.15728,16.068-13.59246,27.2928-14.74995,6.39422-.65949,13.84393-.44808,19.81166,2.25889,5.08665,2.307,7.56435,5.87958,10.332,10.48642a31.10819,31.10819,0,0,0,8.96,10.00444c4.1791,2.8552,9.57855,3.51252,14.46552,4.50977,10.80291,2.20464,21.90043,6.37326,26.68786,17.31392,5.8201,13.29848-.91866,32.59887-9.17362,43.22243-5.25985,6.76866-11.44082,12.73946-19.71273,15.54257-10.19951,3.45675-19.80364,3.10327-30.21025,1.16181-16.33426-3.0475-35.414-11.7604-41.30745-28.64937a20.69466,20.69466,0,0,1,1.67645-18.24522c2.45118-4.30915,4.80776-8.96344,3.08232-13.99494-3.51716-10.25652-14.86182-16.26615-11.57827-28.26754C55.46006,212.354,55.45821,212.60673,54.71336,211.92967Z" transform="translate(-54.4502 -196.86514)" fill="#2cbcb2"/><path d="M159.12085,230.89817a17.18793,17.18793,0,0,0-8.03954-1.39015q-5.11949.05223-10.23773.17658c-3.8133.09276-7.63307.04468-11.451.03544.12049-.44315.24314-.88568.36395-1.32883.8712-3.204,1.63546-6.43706,2.41174-9.66515.78429-3.26291.94978-6.60285,1.64532-9.87624a1.00023,1.00023,0,0,0-1.9273-.53129c-.91034,2.81082-2.23054,5.43767-3.17569,8.23925-.93407,2.76675-1.70233,5.61609-2.50974,8.4226-.4561,1.58307-.89647,3.17107-1.33161,4.76031-1.49586.02-2.9911.05393-4.4848.11926-8.76436.384-17.50747,1.21973-26.22837,2.233q.87226-3.356,1.73931-6.7138c.80432-3.12207,1.45117-6.28883,2.16828-9.43186.7202-3.1572.93592-6.41025,1.637-9.57916a.80574.80574,0,0,0-1.55256-.42805c-.85209,2.72577-1.99879,5.31347-2.95134,8.00071-.943,2.65982-1.62992,5.43828-2.425,8.14587-1.01727,3.46383-1.91867,6.9776-2.76367,10.49967q-5.06726.618-10.124,1.28137c-3.71468.481-7.4232,1.00371-11.13234,1.52483-3.87093.54361-7.72676.95594-11.5342,1.8558a1.2826,1.2826,0,0,0,.33929,2.5082c6.59115-.45271,13.1447-1.69062,19.71273-2.445,3.97171-.45639,7.94649-.88814,11.92589-1.27182q-.25887,1.12144-.514,2.24225c-2.0068,8.82939-4.24042,17.60793-6.40008,26.40311q-3.69341.23622-7.38345.51342-4.81161.36609-9.618.79723c-1.64871.14977-3.30513.2755-4.9489.47366-1.56674.18829-3.46323.43144-4.53134,1.7011a1.50464,1.50464,0,0,0,.298,2.31066c2.10018,1.57845,5.90207.51,8.30858.24962q4.36739-.47243,8.74217-.88106,4.01791-.37536,8.042-.68537c-.15038.62281-.30231,1.245-.45115,1.86782-.75225,3.14519-1.41266,6.29068-2.01113,9.46884-.60093,3.19048-.86811,6.44261-1.31588,9.65806a.778.778,0,0,0,1.49894.41325c1.72483-5.41147,3.5757-10.73048,4.85645-16.27509q.62543-2.70974,1.26135-5.41763,2.67045-.18953,5.34212-.35963c8.03185-.50294,16.07171-.82652,24.11557-1.01419q-1.08122,3.8649-2.16151,7.73014a120.5573,120.5573,0,0,0-3.88665,19.16357.67088.67088,0,0,0,1.24131.33683c4.16739-8.73478,6.76342-18.02211,9.31661-27.32146q3.09111-.05316,6.18252-.0832c6.65955-.05948,13.26765.17874,19.8964-.531,1.04746-.11248,1.51281-1.79786.27334-2.01789a58.87817,58.87817,0,0,0-8.4642-1.03608q-4.38867-.13866-8.77885-.213-4.01145-.06793-8.022-.06872.2034-.73682.40833-1.47274,4.10529-14.69,8.11567-29.40623c2.809-.30478,5.61949-.57474,8.434-.72481q5.55492-.29677,11.11448-.50848c3.45-.13129,7.22412-.7054,10.49412.66164C159.287,232.28032,159.735,231.207,159.12085,230.89817ZM121.65474,241.6527q-2.994,10.92078-6.04168,21.82616-2.67924.01943-5.35816.06349-12.10323.20847-24.18921.9128.7567-3.21129,1.51989-6.42135c1.78462-7.48145,3.707-14.92315,5.64075-22.36392q1.911-.16686,3.82286-.3168c6.609-.511,13.22975-.90725,19.83138-1.49894,2.35842-.2111,4.71654-.47612,7.075-.74577C123.19035,235.95709,122.43441,238.80891,121.65474,241.6527Z" transform="translate(-54.4502 -196.86514)" fill="#d44e28"/><path d="M141.73666,214.65975c.55655-.85116,1.0222-1.69308,1.66288-2.506a.3334.3334,0,0,0-.47119-.47119,19.34781,19.34781,0,0,0-2.347,1.96058,12.14106,12.14106,0,0,0-1.57967,2.53655,15.03648,15.03648,0,0,0-1.654,5.09806c-.46749,3.35135,2.55751,5.65216,5.78806,5.22781,4.05429-.53283,7.74586-4.11408,10.14435-7.19393,2.25365-2.89464,4.37941-7.51936,1.6672-10.87934-2.886-3.576-7.671-1.474-10.5915.767-.46627.35778-.0604,1.139.47673.81511a9.57806,9.57806,0,0,1,5.05585-1.654c1.79571.04591,2.75227,1.83823,2.78062,3.486.05455,3.24534-3.02654,6.69223-5.18651,8.81213-1.99293,1.95627-6.73044,5.60346-8.708,1.61327-.86287-1.74116.29307-3.74365,1.21481-5.2201C140.51538,216.21016,141.19828,215.4838,141.73666,214.65975Z" transform="translate(-54.4502 -196.86514)" fill="#d44e28"/><path d="M112.91719,240.28535c-2.87492,1.87922-5.67157,3.82871-8.44819,5.85092-.22866.16642-.45393.33621-.68167.50355a15.66889,15.66889,0,0,0-3.33132-4.07124.89222.89222,0,0,0-1.33684.767,11.19218,11.19218,0,0,0,2.38431,5.02287c-.31464.24222-.63175.47982-.94331.72635-1.21142.95933-2.86444,2.12977-3.48879,3.56646a1.24106,1.24106,0,0,0,1.37906,1.79417c1.43175-.20986,2.96984-1.41142,4.12578-2.26567.42-.31033.83144-.62929,1.24532-.94577,1.31835,1.46041,2.77784,2.81636,4.21669,4.13287a.88884.88884,0,0,0,1.25611-1.25642,50.993,50.993,0,0,1-3.4438-4.45583c.27549-.21911.55285-.43452.828-.65547,2.67677-2.15012,5.2879-4.33873,7.85311-6.621A1.33794,1.33794,0,0,0,112.91719,240.28535Z" transform="translate(-54.4502 -196.86514)" fill="#d44e28"/><path d="M89.39578,285.87514a25.25055,25.25055,0,0,0-1.6783,2.45889,1.12014,1.12014,0,0,0,1.25364,1.63146c.68907-.28229,1.39169-.44254,2.07861-.68229a11.51128,11.51128,0,0,0,2.2028-1.27583c.62034-.39353,1.217-.82867,1.80279-1.27983.907,1.16,1.88169,2.26875,2.87924,3.35043.93868,1.01758,2.5159-.28136,1.87491-1.44625-.72851-1.3242-1.41666-2.66906-2.11374-4.00929,1.07089-.86565,2.11435-1.76582,3.16768-2.65335a25.419,25.419,0,0,0,1.97722-1.76181c.25547-.26533.50817-.53744.73591-.82682a4.08635,4.08635,0,0,0,.29215-.40647c.02249-.02373.03882-.04376.05639-.0641.73437.02126,1.12206-.93931.8407-1.57476-1.433-3.23671-6.903,1.73038-8.32369,2.76214-.27951.20308-.55347.41387-.83144.61973-.95009-1.87306-1.83916-3.8962-3.65583-5.02873a1.08887,1.08887,0,0,0-1.58985.64716c-.35192,2.48354.96919,4.64012,2.20527,6.70887-.26688.21171-.53837.41757-.8031.63144A23.16348,23.16348,0,0,0,89.39578,285.87514Z" transform="translate(-54.4502 -196.86514)" fill="#d44e28"/><path d="M76.73029,212.44678a.48223.48223,0,0,0-.23422-.02958c-4.43672.57258-6.74707,5.64445-8.18654,9.34742-.80556,2.07152-1.75811,4.63673-.98953,6.84323a4.1053,4.1053,0,0,0,5.23889,2.60589,24.33338,24.33338,0,0,0,10.7157-7.16219c2.7119-3.03548,5.89807-7.90179,1.92668-11.30954C82.69585,210.59221,79.46653,211.04029,76.73029,212.44678Zm4.16368,8.57084a22.76415,22.76415,0,0,1-4.25891,3.85644,21.14611,21.14611,0,0,1-4.86262,2.60312c-1.1316.39722-1.1168-.35008-.88568-1.39941a15.26661,15.26661,0,0,1,1.00987-2.80065c1.4598-3.29558,4.52765-6.21363,5.16771-9.80136a5.40473,5.40473,0,0,1,3.24319-.60956c1.40957.25054,3.05828,1.59663,3.15351,3.08448C83.58183,217.853,82.05793,219.67307,80.894,221.01762Z" transform="translate(-54.4502 -196.86514)" fill="#d44e28"/><path d="M220.55029,228.85107v10.34961h-8.5498v21.14893h-11.7002V239.20068h-8.54883V228.85107Z" transform="translate(-54.4502 -196.86514)" fill="#2cbcb2"/><path d="M223.70068,225.251h10.79981v8.5498H223.70068Zm10.79981,11.24951v23.84912H223.70068V236.50049Z" transform="translate(-54.4502 -196.86514)" fill="#2cbcb2"/><path d="M252.94922,251.7998A6.51825,6.51825,0,0,0,257,250l4.5,7.19922a14.51693,14.51693,0,0,1-10.125,3.82519c-7.6499,0-13.2749-5.624-13.2749-12.59912s5.625-12.59961,13.2749-12.59961a14.51778,14.51778,0,0,1,10.125,3.82471L257,246.8501a6.51824,6.51824,0,0,0-4.05078-1.79981,3.38175,3.38175,0,1,0,0,6.74951Z" transform="translate(-54.4502 -196.86514)" fill="#2cbcb2"/><path d="M300.65039,228.85107v10.34961h-8.55078v21.14893H280.40039V239.20068h-8.54883V228.85107Z" transform="translate(-54.4502 -196.86514)" fill="#242021"/><path d="M324.04883,248.42529v11.92432H313.69922l-.89844-2.69922a6.88017,6.88017,0,0,1-5.84961,3.374c-4.95117,0-8.09961-3.14941-8.09961-7.4248,0-4.27441,3.14844-7.42432,10.79883-7.42432H313.25s-.44922-2.47509-4.04883-2.47509a6.51825,6.51825,0,0,0-4.05078,1.7998l-3.82422-6.07471a13.54134,13.54134,0,0,1,9.44922-3.59961C318.42578,235.82568,324.04883,241.4502,324.04883,248.42529ZM313.25,250c-2.47461,0-3.59961,1.125-3.59961,2.47461A1.44978,1.44978,0,0,0,311,253.82422C312.125,253.82422,313.25,252.69922,313.25,250Z" transform="translate(-54.4502 -196.86514)" fill="#242021"/><path d="M342.04883,251.7998A6.51825,6.51825,0,0,0,346.09961,250l4.5,7.19922a14.51693,14.51693,0,0,1-10.125,3.82519c-7.65039,0-13.27539-5.624-13.27539-12.59912s5.625-12.59961,13.27539-12.59961a14.51778,14.51778,0,0,1,10.125,3.82471l-4.5,7.19971a6.51824,6.51824,0,0,0-4.05078-1.79981,3.38178,3.38178,0,1,0,0,6.74951Z" transform="translate(-54.4502 -196.86514)" fill="#242021"/><path d="M389.75,228.85107v10.34961h-8.55078v21.14893H369.5V239.20068h-8.54883V228.85107Z" transform="translate(-54.4502 -196.86514)" fill="#d44e28"/><path d="M403.02344,235.82568c8.09961,0,13.72461,5.62452,13.72461,12.59961s-5.625,12.59912-13.72461,12.59912-13.72461-5.624-13.72461-12.59912S394.92383,235.82568,403.02344,235.82568Zm0,9.22461a3.4092,3.4092,0,1,0,2.92578,3.375A3.10075,3.10075,0,0,0,403.02344,245.05029Z" transform="translate(-54.4502 -196.86514)" fill="#d44e28"/><path d="M444.64844,248.42529v2.24951H430.25s.44922,2.47559,4.04883,2.47559a6.51691,6.51691,0,0,0,4.05078-1.80078l3.82422,6.07519a13.54134,13.54134,0,0,1-9.44922,3.59961c-7.65039,0-13.27539-5.624-13.27539-12.59912a12.59961,12.59961,0,1,1,25.19922,0Zm-10.57422-2.0249c0-1.80029-.90039-2.70019-2.02539-2.70019s-2.02344.8999-2.02344,2.70019Z" transform="translate(-54.4502 -196.86514)" fill="#d44e28"/></svg>