<svg xmlns="http://www.w3.org/2000/svg" viewBox="0 0 364.55 128"><path d="M103.35 94.1L81.06 82.94v-68a2.15 2.15 0 00-.63-1.51 2.13 2.13 0 00-1.51-.62H61.86v-2.13a2.13 2.13 0 00-.62-1.51 2.15 2.15 0 00-1.51-.63h-8.75a10.66 10.66 0 00-20.9 0h-8.79a2.14 2.14 0 00-2.13 2.14v2.13H2.14A2.13 2.13 0 000 14.94v98.12a2.13 2.13 0 002.14 2.13h57.59v2.14a2.13 2.13 0 001.06 1.85l14.93 8.53a2.09 2.09 0 002.13 0l14.93-8.53a2.14 2.14 0 001.07-1.85v-14.68l6.39-3.2v26.41a2.14 2.14 0 004.27 0V96a2.13 2.13 0 00-1.17-1.9zM23.47 12.81H32a2.15 2.15 0 001.51-.63 2.12 2.12 0 00.62-1.5 6.4 6.4 0 1112.8 0 2.12 2.12 0 00.62 1.5 2.15 2.15 0 001.51.63h8.53v6.4H23.47zM4.29 110.92V17.07H19.2v4.27a2.15 2.15 0 00.63 1.51 2.1 2.1 0 001.5.62h38.4a2.12 2.12 0 002.13-2.13v-4.27h14.93v64a2 2 0 00-1 .24l-25.5 12.78a2.14 2.14 0 000 3.8l9.49 4.76v8.27zm85.32 5.17l-12.8 7.31-12.8-7.31v-11.31l11.84 5.91a2.16 2.16 0 001.92 0l11.84-5.91zm-12.8-9.69L55.97 96l20.82-10.4L97.61 96z"/><path d="M27.73 38.4H64a2.13 2.13 0 000-4.26H27.73a2.13 2.13 0 000 4.26zM64 64H27.73a2.14 2.14 0 000 4.27H64A2.14 2.14 0 0064 64zM17.07 53.33H64a2.13 2.13 0 100-4.26H17.07a2.13 2.13 0 100 4.26zM55.46 81.06a2.13 2.13 0 00-2.13-2.13H17.07a2.14 2.14 0 000 4.27h36.22a2.13 2.13 0 002.13-2.14z"/><path d="M159.51 27.82a7.88 7.88 0 011.61.17 10.62 10.62 0 011.62.44 7.83 7.83 0 011.29.59 1.45 1.45 0 01.65.63 1.89 1.89 0 01.42-1.27 1.51 1.51 0 011.21-.5c1.11 0 1.66.6 1.66 1.81 0 .2 0 .74-.1 1.63h0q-.06.83-.12 1.38c0 .38-.05.66-.05.87 0 .54 0 1.13.1 1.76l.11 1.23v.37c0 1.27-.57 1.91-1.7 1.91A1.58 1.58 0 01164.4 37v-.61-.58a4.44 4.44 0 00-1.31-3.5 5 5 0 00-3.62-1.33 5.37 5.37 0 00-4.66 2.35 13.57 13.57 0 00.07 13.17 5.63 5.63 0 004.83 2.37 5.5 5.5 0 002.95-.8 4.42 4.42 0 001.84-2.13 4.48 4.48 0 00.25-1 8.92 8.92 0 00.09-1.36c0-1.29.6-1.93 1.8-1.93a1.7 1.7 0 011.91 1.93 7.8 7.8 0 01-2.62 6.06 9.38 9.38 0 01-6.6 2.34 9.49 9.49 0 01-7.48-3.26 10.68 10.68 0 01-2.06-3.76 16.1 16.1 0 01-.66-4.78 16.76 16.76 0 01.68-4.94 11.58 11.58 0 012.11-3.93 9.27 9.27 0 017.59-3.49zM185.48 51.34c-.86 0-1.35-.35-1.46-1.05a6.83 6.83 0 01-4.49 1.46q-4.11 0-5.74-2.58a5.11 5.11 0 01-.55-1.23 5.78 5.78 0 01-.23-1.36 11.37 11.37 0 010-1.15V41c0-2.65-.13-4-.41-4h-.51c-.11 0-.27.05-.49.07h-.25c-1.12 0-1.67-.51-1.67-1.53s.65-1.46 1.94-1.46h.42l.53.05.53.05h.8a3.35 3.35 0 00.54-.08l.27-.06h.34c1 0 1.57.55 1.57 1.66v2.83l-.1 2.38v2a19.17 19.17 0 00.12 2.34 9.1 9.1 0 00.29 1.53c.43 1.16 1.44 1.73 3 1.73a4.19 4.19 0 002.13-.54 3 3 0 001.31-1.46 14.53 14.53 0 00.47-4.59v-3.88c-.06-.72-.17-1.08-.3-1.08a3.32 3.32 0 00-.48.06h-.47c-1.12 0-1.67-.48-1.67-1.46s.6-1.56 1.8-1.56h.41l.51.06.51.05h1.05l.43-.05h.39c1 0 1.53.49 1.53 1.46a3.92 3.92 0 01-.07.82h0c0 .4-.08.9-.12 1.49s0 1.27 0 2v7.07c.11.93.22 1.39.34 1.39h.23l.38-.06.46-.06h.22c1.11 0 1.66.5 1.66 1.5s-.63 1.56-1.9 1.56h-.32a2 2 0 01-.36 0H187.83l-.92-.11h-.2a2.05 2.05 0 00-.37 0h0a3.23 3.23 0 01-.86.22zM196.46 34.24c.75 0 1.2.3 1.33.88a5.86 5.86 0 014-1.46 6.82 6.82 0 012.28.36 5.19 5.19 0 011.76 1 4.53 4.53 0 011.16 1.58 5 5 0 01.41 2 3.93 3.93 0 01-.85 2.64 2.87 2.87 0 01-2.28 1 2.39 2.39 0 01-1.65-.58 1.82 1.82 0 01-.66-1.43 1.67 1.67 0 01.56-1.22 1.78 1.78 0 011.27-.54s0 0 0 0h.08v-.17a1.54 1.54 0 00-.66-1.26 2.62 2.62 0 00-1.65-.51 2.79 2.79 0 00-2.86 2 13.09 13.09 0 00-.47 4v3.71a4.75 4.75 0 000 .71c.12 1 .26 1.5.44 1.5h.38l.34-.05a2.69 2.69 0 01.78-.14q1.56 0 1.56 1.47t-1.86 1.59h-.77l-.9-.1c-.66-.07-1.12-.1-1.39-.1h-1.98l-1.83.17c-1.25 0-1.87-.53-1.87-1.59s.59-1.43 1.76-1.43h.29a.66.66 0 01.29 0l.41.1h.27a.13.13 0 00.1 0h0c.2 0 .32-.34.34-1v-.82a7.32 7.32 0 000-.81l-.1-7.31c-.05-.84-.16-1.32-.35-1.43h-.71.07a4 4 0 01-.85.1c-1.07 0-1.6-.5-1.6-1.5s.64-1.56 1.9-1.56a1.7 1.7 0 00.41 0l.61.05.53.05H195.08a1.11 1.11 0 00.29 0h.12a.3.3 0 01.15 0 3.35 3.35 0 01.82.1zM213.63 34.24c.75 0 1.2.3 1.33.88a5.86 5.86 0 014-1.46 6.82 6.82 0 012.28.36 5.19 5.19 0 011.76 1 4.53 4.53 0 011.16 1.58 5 5 0 01.41 2 3.93 3.93 0 01-.85 2.64 2.87 2.87 0 01-2.28 1 2.39 2.39 0 01-1.65-.58 1.82 1.82 0 01-.66-1.43 1.67 1.67 0 01.56-1.22 1.78 1.78 0 011.27-.54c.05 0 0 0 0 0h.08v-.17a1.54 1.54 0 00-.66-1.26 2.62 2.62 0 00-1.65-.51 2.79 2.79 0 00-2.86 2 13.09 13.09 0 00-.47 4v3.71a4.75 4.75 0 000 .71c.12 1 .26 1.5.44 1.5h.38l.34-.05a2.69 2.69 0 01.78-.14q1.56 0 1.56 1.47t-1.86 1.59h-.77l-.9-.1c-.66-.07-1.12-.1-1.39-.1H212l-1.83.17c-1.25 0-1.87-.53-1.87-1.59s.59-1.43 1.76-1.43h.29a.66.66 0 01.29 0l.41.1h.24a.13.13 0 00.1 0h0c.2 0 .32-.34.34-1v-.82a7.32 7.32 0 000-.81l-.1-7.31c-.05-.84-.16-1.32-.35-1.43h-.71.07a4 4 0 01-.85.1c-1.07 0-1.6-.5-1.6-1.5s.64-1.56 1.9-1.56a1.7 1.7 0 00.41 0l.61.05.53.05H212.22a1.11 1.11 0 00.29 0h.12a.3.3 0 01.15 0 3.35 3.35 0 01.85.1zM231.99 45.6v1.24a4.05 4.05 0 000 .63q.11 1 .3 1h.17a5 5 0 00.51-.1h0l.26-.06a1.41 1.41 0 01.39 0c1.18 0 1.76.5 1.76 1.5a1.35 1.35 0 01-.56 1.12 2.16 2.16 0 01-1.41.44h-.68l-.95-.1-.88-.12a3.91 3.91 0 00-.61-.15h-.83c-.3 0-.63.06-1 .1l-1 .12a5.05 5.05 0 01-.7.05c-1.23 0-1.84-.52-1.84-1.56s.56-1.5 1.67-1.5h.39l.53.06a1.28 1.28 0 00.37.07h.2c.19 0 .31-.54.38-1.63v-8.19c-.07-1.07-.21-1.6-.41-1.6h-.24l-.41.11a1.41 1.41 0 01-.39.08h-.35q-1.74 0-1.74-1.5c0-1 .66-1.53 2-1.53h.62a.94.94 0 01.34 0l.8.1h.71a2.68 2.68 0 00.42 0l.89-.1c1 0 1.46.57 1.46 1.7v.48a1 1 0 000 .22v.12a5 5 0 000 1v.49a4.61 4.61 0 000 .53v6.87zm-2.24-12.17a2.35 2.35 0 01-1.67-.65 2.12 2.12 0 01-.68-1.6 2.08 2.08 0 01.68-1.58 2.38 2.38 0 011.67-.63 2.4 2.4 0 011.68.63 2 2 0 01.7 1.58 2.07 2.07 0 01-.7 1.6 2.37 2.37 0 01-1.68.65zM245.66 40.12a1.87 1.87 0 01.36-1.2 1.89 1.89 0 011.17-.63c-.34-1.07-1.28-1.6-2.82-1.6a3.72 3.72 0 00-3.16 1.63 7.25 7.25 0 00-1.19 4.39 7.59 7.59 0 001.12 4.42 3.62 3.62 0 003.13 1.59 3.44 3.44 0 002.11-.69 3.52 3.52 0 001.25-2l.41-1.39a1.71 1.71 0 011.53-.89 1.81 1.81 0 011.29.48 1.54 1.54 0 01.51 1.22 5 5 0 01-.57 2.09 9 9 0 01-1.33 2.06 7.21 7.21 0 01-2.35 1.56 7.87 7.87 0 01-8.7-1.9 9.35 9.35 0 01-2.11-6.36 9.91 9.91 0 012.18-6.66 7.5 7.5 0 015.95-2.59 7.22 7.22 0 014.66 1.5 4.91 4.91 0 011.87 3.91 3.37 3.37 0 01-.8 2.3 2.71 2.71 0 01-2.09.9 2.47 2.47 0 01-1.72-.63 2 2 0 01-.7-1.51zM268.29 51.34c-.86 0-1.35-.35-1.46-1.05a6.83 6.83 0 01-4.49 1.46c-2.74 0-4.66-.86-5.74-2.58a5.11 5.11 0 01-.55-1.23 6.36 6.36 0 01-.24-1.36V41c0-2.65-.14-4-.41-4h-.51c-.11 0-.28.05-.49.07h-.26c-1.11 0-1.66-.51-1.66-1.53s.64-1.46 1.94-1.46h.42l.53.05.53.05h.79a3.31 3.31 0 00.55-.08l.27-.06h.34c1 0 1.56.55 1.56 1.66v2.83l-.1 2.38v2a19.17 19.17 0 00.12 2.34 9.1 9.1 0 00.29 1.53c.43 1.16 1.44 1.73 3 1.73a4.19 4.19 0 002.13-.54 3 3 0 001.31-1.46 14.53 14.53 0 00.47-4.59v-3.88q-.11-1.08-.3-1.08a3.32 3.32 0 00-.48.06h-.56c-1.11 0-1.66-.48-1.66-1.46s.6-1.56 1.8-1.56h.41l.51.06.51.05h1.05l.43-.05h.39c1 0 1.53.49 1.53 1.46a3.92 3.92 0 01-.07.82h0c0 .4-.08.9-.12 1.49s-.05 1.27-.05 2v7.07c.12.93.23 1.39.34 1.39h.24l.38-.06.46-.06h.22c1.11 0 1.66.5 1.66 1.5s-.63 1.56-1.9 1.56h-.32a2 2 0 01-.36 0H270.5l-.92-.11h-.2a2.25 2.25 0 00-.38 0h0a3.29 3.29 0 01-.71.22zM280.75 47.3c0 .79.12 1.19.31 1.19a.45.45 0 00.17 0h.15l.22-.06H282.01a.34.34 0 01.19 0h.18c1.07 0 1.6.51 1.6 1.53s-.62 1.53-1.87 1.53h-.7l-1-.1c-.36-.05-.69-.08-1-.1a6.54 6.54 0 00-.7 0 5.25 5.25 0 00-.61 0c-.25 0-.54 0-.88.1s-.61.08-.89.1H275.48c-1.27 0-1.9-.54-1.9-1.63s.56-1.43 1.67-1.43h.34a.84.84 0 00.27 0l.58.1h.23c.09 0 .16 0 .21-.17a4.75 4.75 0 00.1-.85c0-.4 0-1 .07-1.63v-1.14-1.1l.1-5v-1.29-1.57-2.85l-.1-1.3a2.61 2.61 0 00-.17-.2.29.29 0 00-.21-.1l-.81.13a1.17 1.17 0 01-.29 0h-.28c-1.11 0-1.67-.49-1.67-1.46s.62-1.53 1.84-1.53h.39a1.17 1.17 0 01.32 0l.68.1h1.21a3.46 3.46 0 00.53-.09 4.44 4.44 0 01.56-.1 3 3 0 01.53 0c.83 0 1.25.47 1.25 1.4a2 2 0 000 .3.37.37 0 01-.05.24c-.14 1.68-.2 4-.2 7zM299.82 51.34c-.86 0-1.34-.35-1.46-1.05a6.83 6.83 0 01-4.49 1.46q-4.11 0-5.74-2.58a5.11 5.11 0 01-.55-1.23 5.78 5.78 0 01-.23-1.36 11.37 11.37 0 010-1.15V41c0-2.65-.13-4-.41-4h-.51c-.11 0-.27.05-.49.07h-.25c-1.11 0-1.67-.51-1.67-1.53s.65-1.46 1.94-1.46h.42l.53.05.53.05h.8a3.35 3.35 0 00.54-.08l.27-.06h.34c1 0 1.57.55 1.57 1.66v2.83l-.1 2.38v2a19.17 19.17 0 00.12 2.34 9.1 9.1 0 00.29 1.53c.43 1.16 1.44 1.73 3 1.73a4.16 4.16 0 002.13-.54 3 3 0 001.31-1.46 14.23 14.23 0 00.47-4.59v-3.88c-.06-.72-.17-1.08-.3-1.08a3.32 3.32 0 00-.48.06h-.47c-1.12 0-1.67-.48-1.67-1.46s.6-1.56 1.8-1.56h.41l.51.06.51.05h1.05l.43-.05h.39c1 0 1.53.49 1.53 1.46a3.92 3.92 0 01-.07.82h0c0 .4-.08.9-.12 1.49s-.05 1.27-.05 2v7.07c.11.93.22 1.39.34 1.39h.23l.38-.06.46-.06h.22c1.11 0 1.66.5 1.66 1.5s-.63 1.56-1.9 1.56h-.32a2 2 0 01-.36 0H302.12l-.92-.11h-.2a2.05 2.05 0 00-.37 0h0a3.23 3.23 0 01-.81.22zM310.98 34.24a1.22 1.22 0 011.36 1 5.52 5.52 0 011.88-1.24 8 8 0 015.09.12 4.78 4.78 0 011.98 1.58 7.58 7.58 0 012.23-1.49 7.17 7.17 0 012.87-.55 7.72 7.72 0 013.54.82 5.65 5.65 0 012.48 2.69 5.52 5.52 0 01.34 1.46 17.6 17.6 0 01.1 2v6.54a3.39 3.39 0 000 .54c.07.5.16.75.28.75a2.58 2.58 0 00.51-.07h.59c.24 0 .33 0 .29-.07 1.09.05 1.63.51 1.63 1.4q0 1.59-1.8 1.59h-.66l-.9-.1c-.66-.07-1.14-.1-1.43-.1h-.65a7.3 7.3 0 00-.88.09c-.32 0-.63.08-.92.1h-.71c-1.27 0-1.91-.53-1.91-1.59s.52-1.4 1.57-1.4h.78a1.77 1.77 0 00.37 0c.09 0 .15-.07.17-.2a15.52 15.52 0 00.17-2.62v-1-3.11a11.45 11.45 0 00-.29-3 2.44 2.44 0 00-1.07-1.41 3.32 3.32 0 00-1.84-.51 2.91 2.91 0 00-2.72 1.36 9.28 9.28 0 00-.65 4.15V46.61a10.36 10.36 0 00.1 1.34c0 .25.12.37.24.37h.47l.43-.07h.22a1.64 1.64 0 011.14.42 1.43 1.43 0 01.46 1.07q0 1.53-2 1.53h-.7l-.87-.1c-.31-.05-.58-.08-.8-.1a3.76 3.76 0 00-.52 0 5.92 5.92 0 00-.67 0 6.31 6.31 0 00-.76.1c-.25 0-.5.08-.75.1h-.71c-1.25 0-1.87-.52-1.87-1.56s.51-1.43 1.53-1.43a3.16 3.16 0 01.68.07l.34.05h.2c.14 0 .22-.4.24-1.19v-.75-.75a6.06 6.06 0 000-.73v-.7a3.91 3.91 0 000-.41v-2.82a13 13 0 00-.15-2.16 4.16 4.16 0 00-.49-1.41 1.92 1.92 0 00-.89-.76 3.55 3.55 0 00-1.36-.22 3.14 3.14 0 00-2.7 1.5c-.56.72-.85 2.09-.85 4.11v4.29a12 12 0 000 1.46c.07.45.12.68.17.68l.54-.11a.61.61 0 00.24 0h.31q1.8 0 1.8 1.5c0 1-.67 1.49-2 1.49a12 12 0 01-1.43-.1l-1-.1h-.82c-.25 0-.69 0-1.32.1l-1.14.1h-.6q-1.83 0-1.83-1.56c0-.95.58-1.43 1.76-1.43h.24a.51.51 0 00.21 0l.95.17c.18-.11.28-.48.3-1.12a9 9 0 010-.91v-5.85c0-.89 0-1.6-.05-2.14a8.24 8.24 0 00-.12-1.16c0-.23-.1-.34-.24-.34l-.34.1-.54.07a.17.17 0 00-.09 0h.06a.61.61 0 01-.24 0h-.24c-1.16 0-1.73-.5-1.73-1.5s.61-1.53 1.83-1.53h.44l.51.05.58.05h.51a.75.75 0 00.24 0h.34z" fill="#2cbcb2" stroke="#2cbcb2" stroke-miterlimit="10" stroke-width=".5"/><path d="M136.17 84.83a1 1 0 00-.26-.42.89.89 0 00-.49-.09h-5.81a.73.73 0 00-.57.19 4.54 4.54 0 00-.45 1l-1 2.55a1.58 1.58 0 00-.1.48c0 .41.24.61.72.61a2.77 2.77 0 00.37 0 4.87 4.87 0 00.51-.05l.51-.05h.44c1.27 0 1.91.53 1.91 1.59s-.68 1.53-2 1.53h-.31l-.34-.05h-.14l-1.63-.24a3.87 3.87 0 00-.61 0h-1.72a4.18 4.18 0 00-.63 0l-1.36.2c-.29 0-.56.08-.8.1a4.8 4.8 0 01-.62 0c-1.23 0-1.84-.51-1.84-1.53s.6-1.6 1.8-1.6h.26a.57.57 0 01.25.05h.31a1 1 0 00.85-.47 7.14 7.14 0 00.61-1.47l6.09-16.42a2.46 2.46 0 012.58-1.66 2.43 2.43 0 012.52 1.66l5.84 16.19a7.07 7.07 0 00.84 1.78 1.11 1.11 0 00.93.46 1.35 1.35 0 00.34 0H143.85a.88.88 0 00.24 0c1.25 0 1.87.5 1.87 1.49s-.6 1.57-1.8 1.57h-.39a2.21 2.21 0 01-.39 0H143.14c-.68-.09-1.27-.15-1.77-.19s-.91-.05-1.22-.05-.91 0-1.55.07-1.42.11-2.33.21h-.31a2.77 2.77 0 01-.42 0h-.36c-1.25 0-1.87-.52-1.87-1.56s.67-1.56 2-1.56h.41l.51.05a3.56 3.56 0 00.47.05 2.53 2.53 0 00.34 0c.34 0 .51-.15.51-.44a.7.7 0 000-.14c0-.06-.06-.16-.1-.27l-.16-.4h0zm-6.12-3.46s0-.06-.07-.11h.1a.18.18 0 00-.03.11zm0 .13a.5.5 0 010-.12s0 0 0 0a.09.09 0 000 .07zm0 0s0 0 0 0zm2.51-7.62c-.43 1.22-.85 2.45-1.27 3.67s-.82 2.45-1.21 3.67h4.86v-.06zm2.45 7.51a.09.09 0 010-.06.21.21 0 000-.11h.21c-.16.09-.21.15-.21.21zM160.51 92.14c-.86 0-1.35-.35-1.46-1.05a6.85 6.85 0 01-4.49 1.46q-4.11 0-5.75-2.58a5.32 5.32 0 01-.54-1.23 5.8 5.8 0 01-.24-1.36V81.84c0-2.65-.14-4-.41-4h-.2l-.31.05a3.33 3.33 0 01-.49.07h-.26c-1.11 0-1.66-.51-1.66-1.53s.59-1.43 1.9-1.43h.43l.53.05.52.05h.8a3.47 3.47 0 00.55-.08l.27-.06h.34c1 0 1.56.55 1.56 1.66v2.83l-.1 2.38v2a19.06 19.06 0 00.12 2.34 10.43 10.43 0 00.28 1.53c.44 1.16 1.44 1.74 3 1.74a4.22 4.22 0 002.13-.55 2.91 2.91 0 001.3-1.46 14.14 14.14 0 00.48-4.59v-3.88c-.07-.72-.17-1.09-.31-1.09a3.77 3.77 0 00-.47.07h-.48c-1.11 0-1.66-.48-1.66-1.46s.6-1.56 1.8-1.56h.41l.51.06.51.05h1.05l.43-.05h.39c1 0 1.53.49 1.53 1.46a4.73 4.73 0 01-.07.82h0c0 .4-.09.9-.12 1.49s0 1.27 0 2v7.07c.12.93.23 1.39.34 1.39h.24l.38-.05a3.07 3.07 0 01.45-.07h.22c1.12 0 1.67.5 1.67 1.5s-.63 1.56-1.9 1.56h-.33a2 2 0 01-.35 0H162.81l-.92-.11h-.2a2.25 2.25 0 00-.38 0h0a3.29 3.29 0 01-.8.1zM175.78 85c0-1.18.62-1.77 1.73-1.77s1.67.65 1.67 1.94a14.55 14.55 0 01-.28 3.11 6.92 6.92 0 01-.74 2.06 5 5 0 01-4.46 2 5.8 5.8 0 01-2.46-.48 4 4 0 01-1.65-1.36 8 8 0 01-.92-4.32v-7.72c0-.16 0-.24-.07-.24h-1a1.77 1.77 0 01-1.24-.45 1.5 1.5 0 01-.49-1.14 1.53 1.53 0 01.49-1.11 1.56 1.56 0 011.14-.49h1.26v-3.47c0-1.13.6-1.7 1.8-1.7a1.51 1.51 0 011.7 1.7V75h3.51c1.17 0 1.76.52 1.76 1.56s-.61 1.63-1.83 1.63h-3.57a.27.27 0 01.1.24v7.92c0 2 .56 2.93 1.67 2.93s1.8-.76 1.8-2.28zM186.72 70.83l-.13 5.06a6.63 6.63 0 012-1.1 7.34 7.34 0 012.3-.33 7.93 7.93 0 012.75.45 5.91 5.91 0 012.09 1.25 5.57 5.57 0 011.34 2 6.45 6.45 0 01.48 2.53v6.9a3.1 3.1 0 000 .62c.07.72.17 1.08.31 1.08h.24a1.28 1.28 0 00.34-.06 1 1 0 01.34-.07h.34c1.15 0 1.73.5 1.73 1.49s-.7 1.53-2.11 1.53a10.28 10.28 0 01-1.25-.1l-1.23-.12c-.36 0-.67-.05-.92-.05h-.66l-.56.05a12.89 12.89 0 01-1.73.2 2 2 0 01-1.36-.47 1.51 1.51 0 01-.55-1.19 1.31 1.31 0 01.5-1 1.71 1.71 0 011.17-.42 3.55 3.55 0 011 .2h.37c.25 0 .4-.55.44-1.63v-.58-1-.67V83a9.87 9.87 0 00-.58-4.18 2.83 2.83 0 00-2.78-1.46 3.64 3.64 0 00-3.27 1.53 7.43 7.43 0 00-.75 3.6V85.13a2.38 2.38 0 010 .39v1.95a4.45 4.45 0 000 .67c.07.77.2 1.15.41 1.15h.24l.4-.07a1.57 1.57 0 01.4-.09h.35c1.07 0 1.6.47 1.6 1.42s-.66 1.6-2 1.6a13.17 13.17 0 01-1.43-.1c-.39 0-.75-.08-1.09-.1h-.92a14.13 14.13 0 00-1.46.1l-1.1.1h-.6c-1.24 0-1.87-.54-1.87-1.63 0-.93.59-1.39 1.77-1.39a3 3 0 01.75.07h0a2.23 2.23 0 00.45.06h.23s.08-.19.11-.57a31.35 31.35 0 00.23-3.95v-2.89-2.89a50.64 50.64 0 00-.21-6c-.06-.54-.17-.83-.3-.88a.49.49 0 01-.22.05h-.33a1.23 1.23 0 01-.44.07h-.26c-1.09 0-1.63-.49-1.63-1.46a1.4 1.4 0 01.54-1.13 2.07 2.07 0 011.33-.44c.16 0 .54 0 1.15.1h0c.2 0 .41.05.61.06h1a3.86 3.86 0 00.49-.06h.71q1.29 0 1.29 1.53zM210.15 92.55a7.34 7.34 0 01-5.81-2.48 9.6 9.6 0 01-2.18-6.56 9.4 9.4 0 012.18-6.53 7.4 7.4 0 015.91-2.52 7.61 7.61 0 016 2.45 10.94 10.94 0 01-.07 13.09 7.49 7.49 0 01-6.03 2.55zm.17-15.06a3.82 3.82 0 00-3.18 1.46 7.16 7.16 0 00-1.24 4.18v.38a7.59 7.59 0 001.12 4.42 3.65 3.65 0 003.16 1.6 3.91 3.91 0 003.29-1.59 7.25 7.25 0 001.2-4.47q0-5.98-4.38-5.98zM225.29 75c.75 0 1.19.3 1.33.89a5.82 5.82 0 014-1.47 6.82 6.82 0 012.28.36 5.19 5.19 0 011.76 1 4.53 4.53 0 011.16 1.58 5 5 0 01.41 2 4 4 0 01-.85 2.64 2.84 2.84 0 01-2.28 1 2.39 2.39 0 01-1.65-.58 1.82 1.82 0 01-.66-1.43 1.64 1.64 0 01.56-1.22 1.78 1.78 0 011.27-.54c.05 0 0 0 0 0h.08v-.17a1.54 1.54 0 00-.66-1.26 2.62 2.62 0 00-1.65-.51 2.78 2.78 0 00-2.86 2 13.09 13.09 0 00-.47 4V87a4.75 4.75 0 000 .71c.11 1 .26 1.5.44 1.5h.72a2.69 2.69 0 01.78-.14c1 0 1.56.49 1.56 1.46s-.62 1.6-1.87 1.6h-.76l-.9-.1c-.66-.07-1.12-.1-1.4-.1h-1.12l-.85.05-1.83.17c-1.25 0-1.87-.53-1.87-1.6s.58-1.42 1.76-1.42h.29a.66.66 0 01.29 0l.41.1h.27a.12.12 0 00.1 0h0c.2 0 .31-.34.34-1v-.82-.82l-.11-7.3c0-.84-.16-1.32-.34-1.43h-.34a2.08 2.08 0 01-.37 0h.07a3.41 3.41 0 01-.85.11c-1.07 0-1.6-.5-1.6-1.5s.63-1.56 1.9-1.56a1.61 1.61 0 00.41.05l.61.05.53.05H223.91a1.17 1.17 0 00.29 0h.27a3.29 3.29 0 01.82-.06zM243.67 86.4v1.24a3.08 3.08 0 000 .63q.1 1 .3 1h.17a5 5 0 00.51-.1h0a1.26 1.26 0 01.25-.07 2.15 2.15 0 01.4 0c1.17 0 1.76.5 1.76 1.5a1.35 1.35 0 01-.56 1.12 2.16 2.16 0 01-1.41.44h-.68l-.95-.1-.88-.12a3.91 3.91 0 00-.62-.05h-.83c-.31 0-.63.06-1 .1l-1 .12a4.83 4.83 0 01-.69.05c-1.23 0-1.84-.52-1.84-1.56s.56-1.5 1.67-1.5h.39a5 5 0 01.53.07 1.55 1.55 0 00.37.06h.2c.18 0 .31-.54.38-1.63v-8.19c-.07-1.07-.21-1.6-.41-1.6h-.24l-.41.1a1.12 1.12 0 01-.39.09h-.35q-1.74 0-1.74-1.5c0-1 .66-1.53 2-1.53h.62a1 1 0 01.34 0l.79.1h.72a2.68 2.68 0 00.42-.05l.89-.1c1 0 1.46.57 1.46 1.7v.48a1 1 0 000 .22v.12a4.93 4.93 0 000 .95 4.1 4.1 0 010 .49v7.4zm-2.24-12.18a2.34 2.34 0 01-1.67-.64 2.12 2.12 0 01-.68-1.6 2.08 2.08 0 01.68-1.58 2.38 2.38 0 011.67-.63 2.4 2.4 0 011.68.63 2 2 0 01.7 1.58 2.07 2.07 0 01-.7 1.6 2.37 2.37 0 01-1.68.64zM252.58 75c.84 0 1.33.35 1.46 1.06a6.72 6.72 0 014.63-1.64 7 7 0 013.57 1h0a5.21 5.21 0 012.35 2.41 7.72 7.72 0 01.51 3v7.71c0 .37.1.59.24.68h.44l.44-.05.31-.06h.34a1.6 1.6 0 011.09.42 1.33 1.33 0 01.47 1 1.42 1.42 0 01-.54 1.14 2 2 0 01-1.33.46h-.53a4.84 4.84 0 01-.74-.13l-1.1-.12c-.4 0-.74-.05-1-.05h-.7l-.62.05-1.23.15c-.32 0-.5.05-.54.05-1.23 0-1.84-.53-1.84-1.6s.55-1.42 1.63-1.42a1.27 1.27 0 00.28 0h.51l.27.05H261.25c.16 0 .25-.43.28-1.29v-.84V81.76a11.26 11.26 0 00-.17-2.27 2.78 2.78 0 00-.38-.94 2.54 2.54 0 00-.64-.7h0a3.89 3.89 0 00-5.34.91 8.78 8.78 0 00-.68 4.08v4.29a10.17 10.17 0 00.08 1.56c.06.28.16.41.29.41h.21l.37-.07a2.24 2.24 0 01.39-.1 2.92 2.92 0 01.46 0 1.37 1.37 0 011.57 1.53c0 1-.62 1.53-1.84 1.53-.11 0-.34 0-.66-.06s-.7-.1-1.11-.14a9.79 9.79 0 00-1.49-.1h-.74l-1 .1-.75.07a3.05 3.05 0 01-.57.09h-.34c-1.27 0-1.91-.52-1.91-1.56s.52-1.46 1.57-1.46h.28l.26.06a4.55 4.55 0 00.92.1c.27 0 .42-.47.44-1.4v-1.78-5.7l-.07-1.12a10.3 10.3 0 00-.14-1.07.5.5 0 00-.23-.39 1.13 1.13 0 01-.31.05 2.37 2.37 0 00-.37.05 3.07 3.07 0 01-.38.05h-.34c-1.13 0-1.7-.5-1.7-1.5s.66-1.49 2-1.49h.22a.45.45 0 01.23.05l1.12.14h.39l.42-.05.46-.05zM277.84 74.46a5.58 5.58 0 01.7 0 5.36 5.36 0 01.7.1 3.49 3.49 0 011.31-2.23 4.62 4.62 0 012.87-.8 4.53 4.53 0 012.87.89 2.75 2.75 0 011.14 2.27 2.3 2.3 0 01-.66 1.67 2.07 2.07 0 01-1.55.68 1.86 1.86 0 01-1.27-.49 1.49 1.49 0 01-.56-1.17 1.71 1.71 0 01.08-.57 1.22 1.22 0 01.43-.52 1.78 1.78 0 00-.29-.12.8.8 0 00-.29 0c-.73 0-1.12.5-1.19 1.49a6.44 6.44 0 011.82 2 5.39 5.39 0 01-1.24 6.61 6.57 6.57 0 01-4.53 1.6 9.17 9.17 0 01-1.95-.21 8.17 8.17 0 01-2-.68 3.15 3.15 0 00-.64-.17.55.55 0 00-.43.26 1.07 1.07 0 00-.18.63c0 .81.94 1.22 2.82 1.22h1.22a17.93 17.93 0 015.14.61 6.81 6.81 0 013.07 1.87 4.18 4.18 0 011.14 2.89 4.56 4.56 0 01-.59 2.31 5.19 5.19 0 01-1.72 1.74 8.88 8.88 0 01-2.72 1.08 15.58 15.58 0 01-3.57.38 11.77 11.77 0 01-6.22-1.4 4.33 4.33 0 01-2.24-3.87 4 4 0 012.38-3.71 3.38 3.38 0 01-2-3.09 3.12 3.12 0 01.64-1.94 4.51 4.51 0 011.74-1.36 3.43 3.43 0 01-.5-1.16 6.1 6.1 0 01-.12-1.25 5.22 5.22 0 011.87-4 7 7 0 014.52-1.56zm.14 15.51a8.33 8.33 0 00-3.67.66 2 2 0 00-1.33 1.75 1.93 1.93 0 001.29 1.75 8.1 8.1 0 003.51.63 8.78 8.78 0 003.68-.64c.9-.44 1.35-1 1.35-1.74a2 2 0 00-1.28-1.77 8 8 0 00-3.55-.61zm0-12.48a3.07 3.07 0 00-2 .71 2.46 2.46 0 00-.92 1.81v.13a2.55 2.55 0 00.81 2 3 3 0 002.11.73 3.33 3.33 0 002.25-.73 2.44 2.44 0 00.85-1.92 2.49 2.49 0 00-.89-2 3.19 3.19 0 00-2.24-.73z" fill="#242021" stroke="#242021" stroke-miterlimit="10" stroke-width=".5"/><path d="M308.17 87.25c0 1.31.37 2 1.12 2h.29l.43-.05h.85a1.59 1.59 0 011.12.46 1.4 1.4 0 01.47 1c0 1.06-.66 1.6-2 1.6h-.27a.61.61 0 00-.24 0l-1.63-.23c-.32-.05-.64-.08-1-.11s-.64 0-1 0h-1.12c-.36 0-.71.06-1 .11l-1.64.23a.37.37 0 00-.2 0h-.31c-1.33 0-2-.54-2-1.6s.53-1.5 1.6-1.5H302.49l.44.05h.27c.73 0 1.09-.66 1.09-2V74.02a1.64 1.64 0 00-1.84-1.87h-1a1.61 1.61 0 00-1.81 1.83v.67a2.3 2.3 0 000 .42l.13 1.16a1.62 1.62 0 010 .41v.47c0 1.68-.61 2.52-1.84 2.52s-1.64-.63-1.64-1.97v-.41a4.06 4.06 0 010-.51 1.19 1.19 0 010-.25v-.33c.07-1 .1-1.67.1-2v-.78c0-.27 0-.57-.05-.88l-.11-1v-.2-.31a1.61 1.61 0 011.8-1.84h.77c.37 0 .83 0 1.37.08H301.35l1.48.05h7.2c.39 0 1.09 0 2.11-.1.39 0 .77-.07 1.16-.08h.95c1.45 0 2.18.62 2.18 1.87 0 .23 0 .64-.09 1.24s-.11 1.23-.15 1.89v.93a6.2 6.2 0 00.07.9c0 .46.08.83.1 1.13s0 .49 0 .61a1.59 1.59 0 01-1.83 1.77c-1.18 0-1.77-.7-1.77-2.08 0-.38 0-1 .1-1.77 0-.38 0-.72.05-1s0-.53 0-.71q0-1.8-2-1.8h-.92a1.69 1.69 0 00-1.29.44 2.12 2.12 0 00-.47 1.32l-.11 2.28zM325.85 92.55a7.36 7.36 0 01-5.81-2.48 9.6 9.6 0 01-2.18-6.56 9.4 9.4 0 012.18-6.53 7.4 7.4 0 015.91-2.52 7.61 7.61 0 015.95 2.45 10.94 10.94 0 01-.07 13.09 7.49 7.49 0 01-5.98 2.55zm.17-15.06a3.82 3.82 0 00-3.18 1.46 7.16 7.16 0 00-1.24 4.18v.38a7.66 7.66 0 001.12 4.42 3.65 3.65 0 003.16 1.6 3.91 3.91 0 003.29-1.59 7.25 7.25 0 001.2-4.47q0-5.98-4.35-5.98zM344.41 92.55a7.36 7.36 0 01-5.81-2.48 9.6 9.6 0 01-2.18-6.56 9.4 9.4 0 012.18-6.53 7.41 7.41 0 015.92-2.52 7.64 7.64 0 015.95 2.45A10.94 10.94 0 01350.4 90a7.51 7.51 0 01-5.99 2.55zm.17-15.06a3.8 3.8 0 00-3.17 1.46 7.09 7.09 0 00-1.24 4.18v.38a7.59 7.59 0 001.12 4.42 3.64 3.64 0 003.16 1.6 3.91 3.91 0 003.28-1.59 7.25 7.25 0 001.21-4.47q0-5.98-4.36-5.98zM361.07 88.1c0 .79.13 1.19.31 1.19a.41.41 0 00.17 0h.15l.22-.05h.37a.49.49 0 01.19 0h.19q1.59 0 1.59 1.53c0 1-.62 1.53-1.87 1.53h-.69l-1-.1c-.36-.05-.68-.08-1-.1a6.83 6.83 0 00-.7 0 5.12 5.12 0 00-.61 0c-.25 0-.55 0-.89.1s-.61.08-.88.1H355.77c-1.27 0-1.91-.54-1.91-1.63s.56-1.43 1.67-1.43h.34a.84.84 0 00.27 0l.58.1h.24c.09 0 .16-.05.2-.17a3.87 3.87 0 00.1-.85c0-.4 0-1 .07-1.63v-1.14-1.1l.1-5v-1.29-1.57-2.85l-.1-1.29a1 1 0 00-.17-.21.28.28 0 00-.2-.1l-.82.14h-.58c-1.11 0-1.66-.49-1.66-1.46s.61-1.53 1.83-1.53h.4a1.27 1.27 0 01.32 0l.68.1H358.34a2.43 2.43 0 00.52-.08 4.78 4.78 0 01.56-.1 4.55 4.55 0 01.53 0c.84 0 1.26.47 1.26 1.4a1.19 1.19 0 000 .3.39.39 0 01-.06.24q-.19 2.52-.2 7z" fill="#d44e28" stroke="#d44e28" stroke-miterlimit="10" stroke-width=".5"/></svg>